<mxfile host="Electron" modified="2024-09-11T04:59:29.909Z" agent="Mozilla/5.0 (X11; Linux x86_64) AppleWebKit/537.36 (KHTML, like Gecko) draw.io/24.6.4 Chrome/124.0.6367.207 Electron/30.0.6 Safari/537.36" etag="LnGasJvc29L30JKDk1Mw" version="24.6.4" type="device">
  <diagram id="R2lEEEUBdFMjLlhIrx00" name="Page-1">
    <mxGraphModel dx="4435" dy="3195" grid="1" gridSize="10" guides="1" tooltips="1" connect="1" arrows="1" fold="1" page="1" pageScale="1" pageWidth="850" pageHeight="1100" math="0" shadow="0" extFonts="Permanent Marker^https://fonts.googleapis.com/css?family=Permanent+Marker">
      <root>
        <mxCell id="0" />
        <mxCell id="1" parent="0" />
        <mxCell id="tLZzEFcxGO2p9wziNyOv-50" style="edgeStyle=orthogonalEdgeStyle;rounded=0;orthogonalLoop=1;jettySize=auto;html=1;entryX=1;entryY=0.5;entryDx=0;entryDy=0;" edge="1" parent="1" source="tLZzEFcxGO2p9wziNyOv-1" target="tLZzEFcxGO2p9wziNyOv-48">
          <mxGeometry relative="1" as="geometry" />
        </mxCell>
        <mxCell id="tLZzEFcxGO2p9wziNyOv-1" value="&lt;h5&gt;Pizza list page&lt;/h5&gt;" style="shape=umlFrame;whiteSpace=wrap;html=1;pointerEvents=0;" vertex="1" parent="1">
          <mxGeometry x="170" y="140" width="550" height="400" as="geometry" />
        </mxCell>
        <mxCell id="tLZzEFcxGO2p9wziNyOv-6" value="&lt;h2&gt;Pizza&lt;/h2&gt;" style="points=[[0.25,0,0],[0.5,0,0],[0.75,0,0],[1,0.25,0],[1,0.5,0],[1,0.75,0],[0.75,1,0],[0.5,1,0],[0.25,1,0],[0,0.75,0],[0,0.5,0],[0,0.25,0]];rounded=1;dashed=1;dashPattern=5 2 1 2;labelPosition=center;verticalLabelPosition=middle;align=center;verticalAlign=middle;fontSize=8;html=1;whiteSpace=wrap;" vertex="1" parent="1">
          <mxGeometry x="245" y="230" width="120" height="70" as="geometry" />
        </mxCell>
        <mxCell id="tLZzEFcxGO2p9wziNyOv-7" value="&lt;h2&gt;Pizza&lt;/h2&gt;" style="points=[[0.25,0,0],[0.5,0,0],[0.75,0,0],[1,0.25,0],[1,0.5,0],[1,0.75,0],[0.75,1,0],[0.5,1,0],[0.25,1,0],[0,0.75,0],[0,0.5,0],[0,0.25,0]];rounded=1;dashed=1;dashPattern=5 2 1 2;labelPosition=center;verticalLabelPosition=middle;align=center;verticalAlign=middle;fontSize=8;html=1;whiteSpace=wrap;" vertex="1" parent="1">
          <mxGeometry x="245" y="320" width="120" height="70" as="geometry" />
        </mxCell>
        <mxCell id="tLZzEFcxGO2p9wziNyOv-8" value="&lt;h2&gt;Pizza&lt;/h2&gt;" style="points=[[0.25,0,0],[0.5,0,0],[0.75,0,0],[1,0.25,0],[1,0.5,0],[1,0.75,0],[0.75,1,0],[0.5,1,0],[0.25,1,0],[0,0.75,0],[0,0.5,0],[0,0.25,0]];rounded=1;dashed=1;dashPattern=5 2 1 2;labelPosition=center;verticalLabelPosition=middle;align=center;verticalAlign=middle;fontSize=8;html=1;whiteSpace=wrap;" vertex="1" parent="1">
          <mxGeometry x="385" y="320" width="120" height="70" as="geometry" />
        </mxCell>
        <mxCell id="tLZzEFcxGO2p9wziNyOv-9" value="&lt;h2&gt;Pizza&lt;/h2&gt;" style="points=[[0.25,0,0],[0.5,0,0],[0.75,0,0],[1,0.25,0],[1,0.5,0],[1,0.75,0],[0.75,1,0],[0.5,1,0],[0.25,1,0],[0,0.75,0],[0,0.5,0],[0,0.25,0]];rounded=1;dashed=1;dashPattern=5 2 1 2;labelPosition=center;verticalLabelPosition=middle;align=center;verticalAlign=middle;fontSize=8;html=1;whiteSpace=wrap;" vertex="1" parent="1">
          <mxGeometry x="385" y="230" width="120" height="70" as="geometry" />
        </mxCell>
        <mxCell id="tLZzEFcxGO2p9wziNyOv-12" value="&lt;h2&gt;Pizza&lt;/h2&gt;" style="points=[[0.25,0,0],[0.5,0,0],[0.75,0,0],[1,0.25,0],[1,0.5,0],[1,0.75,0],[0.75,1,0],[0.5,1,0],[0.25,1,0],[0,0.75,0],[0,0.5,0],[0,0.25,0]];rounded=1;dashed=1;dashPattern=5 2 1 2;labelPosition=center;verticalLabelPosition=middle;align=center;verticalAlign=middle;fontSize=8;html=1;whiteSpace=wrap;" vertex="1" parent="1">
          <mxGeometry x="525" y="230" width="120" height="70" as="geometry" />
        </mxCell>
        <mxCell id="tLZzEFcxGO2p9wziNyOv-13" value="&lt;h2&gt;Pizza&lt;/h2&gt;" style="points=[[0.25,0,0],[0.5,0,0],[0.75,0,0],[1,0.25,0],[1,0.5,0],[1,0.75,0],[0.75,1,0],[0.5,1,0],[0.25,1,0],[0,0.75,0],[0,0.5,0],[0,0.25,0]];rounded=1;dashed=1;dashPattern=5 2 1 2;labelPosition=center;verticalLabelPosition=middle;align=center;verticalAlign=middle;fontSize=8;html=1;whiteSpace=wrap;" vertex="1" parent="1">
          <mxGeometry x="525" y="320" width="120" height="70" as="geometry" />
        </mxCell>
        <mxCell id="tLZzEFcxGO2p9wziNyOv-17" style="edgeStyle=orthogonalEdgeStyle;rounded=0;orthogonalLoop=1;jettySize=auto;html=1;" edge="1" parent="1" source="tLZzEFcxGO2p9wziNyOv-14">
          <mxGeometry relative="1" as="geometry">
            <mxPoint x="320" y="680" as="targetPoint" />
          </mxGeometry>
        </mxCell>
        <mxCell id="tLZzEFcxGO2p9wziNyOv-14" value="&lt;h2&gt;Pizza&lt;/h2&gt;" style="points=[[0.25,0,0],[0.5,0,0],[0.75,0,0],[1,0.25,0],[1,0.5,0],[1,0.75,0],[0.75,1,0],[0.5,1,0],[0.25,1,0],[0,0.75,0],[0,0.5,0],[0,0.25,0]];rounded=1;dashed=1;dashPattern=5 2 1 2;labelPosition=center;verticalLabelPosition=middle;align=center;verticalAlign=middle;fontSize=8;html=1;whiteSpace=wrap;" vertex="1" parent="1">
          <mxGeometry x="245" y="410" width="120" height="70" as="geometry" />
        </mxCell>
        <mxCell id="tLZzEFcxGO2p9wziNyOv-15" value="&lt;h2&gt;Pizza&lt;/h2&gt;" style="points=[[0.25,0,0],[0.5,0,0],[0.75,0,0],[1,0.25,0],[1,0.5,0],[1,0.75,0],[0.75,1,0],[0.5,1,0],[0.25,1,0],[0,0.75,0],[0,0.5,0],[0,0.25,0]];rounded=1;dashed=1;dashPattern=5 2 1 2;labelPosition=center;verticalLabelPosition=middle;align=center;verticalAlign=middle;fontSize=8;html=1;whiteSpace=wrap;" vertex="1" parent="1">
          <mxGeometry x="385" y="410" width="120" height="70" as="geometry" />
        </mxCell>
        <mxCell id="tLZzEFcxGO2p9wziNyOv-16" value="&lt;h2&gt;Pizza&lt;/h2&gt;" style="points=[[0.25,0,0],[0.5,0,0],[0.75,0,0],[1,0.25,0],[1,0.5,0],[1,0.75,0],[0.75,1,0],[0.5,1,0],[0.25,1,0],[0,0.75,0],[0,0.5,0],[0,0.25,0]];rounded=1;dashed=1;dashPattern=5 2 1 2;labelPosition=center;verticalLabelPosition=middle;align=center;verticalAlign=middle;fontSize=8;html=1;whiteSpace=wrap;" vertex="1" parent="1">
          <mxGeometry x="525" y="410" width="120" height="70" as="geometry" />
        </mxCell>
        <mxCell id="tLZzEFcxGO2p9wziNyOv-73" style="edgeStyle=orthogonalEdgeStyle;rounded=0;orthogonalLoop=1;jettySize=auto;html=1;" edge="1" parent="1" source="tLZzEFcxGO2p9wziNyOv-18" target="tLZzEFcxGO2p9wziNyOv-69">
          <mxGeometry relative="1" as="geometry" />
        </mxCell>
        <mxCell id="tLZzEFcxGO2p9wziNyOv-18" value="&lt;h5&gt;Pizza detail page&lt;/h5&gt;" style="shape=umlFrame;whiteSpace=wrap;html=1;pointerEvents=0;" vertex="1" parent="1">
          <mxGeometry x="170" y="680" width="520" height="380" as="geometry" />
        </mxCell>
        <mxCell id="tLZzEFcxGO2p9wziNyOv-23" value="&lt;h2&gt;Добавить в корзину&lt;/h2&gt;" style="points=[[0.25,0,0],[0.5,0,0],[0.75,0,0],[1,0.25,0],[1,0.5,0],[1,0.75,0],[0.75,1,0],[0.5,1,0],[0.25,1,0],[0,0.75,0],[0,0.5,0],[0,0.25,0]];rounded=1;dashed=1;dashPattern=5 2 1 2;labelPosition=center;verticalLabelPosition=middle;align=center;verticalAlign=middle;fontSize=8;html=1;whiteSpace=wrap;" vertex="1" parent="1">
          <mxGeometry x="210" y="980" width="120" height="50" as="geometry" />
        </mxCell>
        <mxCell id="tLZzEFcxGO2p9wziNyOv-24" value="&lt;h2&gt;1-, 1+ счётчик&lt;/h2&gt;" style="points=[[0.25,0,0],[0.5,0,0],[0.75,0,0],[1,0.25,0],[1,0.5,0],[1,0.75,0],[0.75,1,0],[0.5,1,0],[0.25,1,0],[0,0.75,0],[0,0.5,0],[0,0.25,0]];rounded=1;dashed=1;dashPattern=5 2 1 2;labelPosition=center;verticalLabelPosition=middle;align=center;verticalAlign=middle;fontSize=8;html=1;whiteSpace=wrap;" vertex="1" parent="1">
          <mxGeometry x="210" y="900" width="120" height="60" as="geometry" />
        </mxCell>
        <mxCell id="tLZzEFcxGO2p9wziNyOv-105" style="edgeStyle=orthogonalEdgeStyle;rounded=0;orthogonalLoop=1;jettySize=auto;html=1;" edge="1" parent="1" source="tLZzEFcxGO2p9wziNyOv-32">
          <mxGeometry relative="1" as="geometry">
            <mxPoint x="430" y="1710" as="targetPoint" />
          </mxGeometry>
        </mxCell>
        <mxCell id="tLZzEFcxGO2p9wziNyOv-106" value="&lt;h3&gt;Redirect на бизнес процесс по созданию Order&amp;nbsp;&lt;/h3&gt;&lt;h3&gt;и оплаты платёжной системой&lt;/h3&gt;" style="edgeLabel;html=1;align=center;verticalAlign=middle;resizable=0;points=[];" vertex="1" connectable="0" parent="tLZzEFcxGO2p9wziNyOv-105">
          <mxGeometry x="0.2748" y="1" relative="1" as="geometry">
            <mxPoint as="offset" />
          </mxGeometry>
        </mxCell>
        <mxCell id="tLZzEFcxGO2p9wziNyOv-32" value="&lt;h5&gt;Сделать заказ Page&lt;/h5&gt;" style="shape=umlFrame;whiteSpace=wrap;html=1;pointerEvents=0;" vertex="1" parent="1">
          <mxGeometry x="170" y="1130" width="520" height="440" as="geometry" />
        </mxCell>
        <mxCell id="tLZzEFcxGO2p9wziNyOv-35" value="&lt;h2&gt;Data, Photo, etc (Занять всё место как удобно)&lt;/h2&gt;" style="points=[[0.25,0,0],[0.5,0,0],[0.75,0,0],[1,0.25,0],[1,0.5,0],[1,0.75,0],[0.75,1,0],[0.5,1,0],[0.25,1,0],[0,0.75,0],[0,0.5,0],[0,0.25,0]];rounded=1;dashed=1;dashPattern=5 2 1 2;labelPosition=center;verticalLabelPosition=middle;align=center;verticalAlign=middle;fontSize=8;html=1;whiteSpace=wrap;" vertex="1" parent="1">
          <mxGeometry x="210" y="720" width="450" height="160" as="geometry" />
        </mxCell>
        <mxCell id="tLZzEFcxGO2p9wziNyOv-36" value="Object" style="html=1;whiteSpace=wrap;" vertex="1" parent="1">
          <mxGeometry x="220" y="1190" width="140" height="60" as="geometry" />
        </mxCell>
        <mxCell id="tLZzEFcxGO2p9wziNyOv-37" value="Object" style="html=1;whiteSpace=wrap;" vertex="1" parent="1">
          <mxGeometry x="220" y="1270" width="140" height="60" as="geometry" />
        </mxCell>
        <mxCell id="tLZzEFcxGO2p9wziNyOv-38" value="Object" style="html=1;whiteSpace=wrap;" vertex="1" parent="1">
          <mxGeometry x="220" y="1350" width="140" height="60" as="geometry" />
        </mxCell>
        <mxCell id="tLZzEFcxGO2p9wziNyOv-39" value="Количество +-1 счётчик" style="html=1;whiteSpace=wrap;" vertex="1" parent="1">
          <mxGeometry x="390" y="1350" width="160" height="60" as="geometry" />
        </mxCell>
        <mxCell id="tLZzEFcxGO2p9wziNyOv-40" value="Количество +-1 счётчик" style="html=1;whiteSpace=wrap;" vertex="1" parent="1">
          <mxGeometry x="390" y="1270" width="160" height="60" as="geometry" />
        </mxCell>
        <mxCell id="tLZzEFcxGO2p9wziNyOv-41" value="Количество +-1 счётчик" style="html=1;whiteSpace=wrap;" vertex="1" parent="1">
          <mxGeometry x="390" y="1190" width="160" height="60" as="geometry" />
        </mxCell>
        <mxCell id="tLZzEFcxGO2p9wziNyOv-45" style="edgeStyle=orthogonalEdgeStyle;rounded=0;orthogonalLoop=1;jettySize=auto;html=1;entryX=1;entryY=0.5;entryDx=0;entryDy=0;" edge="1" parent="1" source="tLZzEFcxGO2p9wziNyOv-44" target="tLZzEFcxGO2p9wziNyOv-47">
          <mxGeometry relative="1" as="geometry">
            <mxPoint x="60" y="1515" as="targetPoint" />
          </mxGeometry>
        </mxCell>
        <mxCell id="tLZzEFcxGO2p9wziNyOv-44" value="&lt;h2&gt;Cоздать заказ (Order)&lt;/h2&gt;" style="points=[[0.25,0,0],[0.5,0,0],[0.75,0,0],[1,0.25,0],[1,0.5,0],[1,0.75,0],[0.75,1,0],[0.5,1,0],[0.25,1,0],[0,0.75,0],[0,0.5,0],[0,0.25,0]];rounded=1;dashed=1;dashPattern=5 2 1 2;labelPosition=center;verticalLabelPosition=middle;align=center;verticalAlign=middle;fontSize=8;html=1;whiteSpace=wrap;" vertex="1" parent="1">
          <mxGeometry x="220" y="1495" width="120" height="50" as="geometry" />
        </mxCell>
        <mxCell id="tLZzEFcxGO2p9wziNyOv-46" value="Backend" style="shape=umlFrame;whiteSpace=wrap;html=1;pointerEvents=0;" vertex="1" parent="1">
          <mxGeometry x="-600" y="140" width="550" height="1450" as="geometry" />
        </mxCell>
        <mxCell id="tLZzEFcxGO2p9wziNyOv-47" value="Create Order" style="shape=mxgraph.bpmn.conversation;perimeter=hexagonPerimeter2;whiteSpace=wrap;html=1;aspect=fixed;bpmnConversationType=conv;" vertex="1" parent="1">
          <mxGeometry x="-190.83" y="1490" width="70" height="60" as="geometry" />
        </mxCell>
        <mxCell id="tLZzEFcxGO2p9wziNyOv-48" value="Get pizzas&lt;div&gt;+ filter_by caregory_id&lt;/div&gt;" style="shape=mxgraph.bpmn.conversation;perimeter=hexagonPerimeter2;whiteSpace=wrap;html=1;aspect=fixed;bpmnConversationType=conv;" vertex="1" parent="1">
          <mxGeometry x="-231.67000000000002" y="280" width="116.67" height="100" as="geometry" />
        </mxCell>
        <mxCell id="tLZzEFcxGO2p9wziNyOv-83" style="edgeStyle=orthogonalEdgeStyle;rounded=0;orthogonalLoop=1;jettySize=auto;html=1;" edge="1" parent="1" source="tLZzEFcxGO2p9wziNyOv-51">
          <mxGeometry relative="1" as="geometry">
            <mxPoint x="480" y="660" as="targetPoint" />
          </mxGeometry>
        </mxCell>
        <mxCell id="tLZzEFcxGO2p9wziNyOv-85" style="rounded=0;orthogonalLoop=1;jettySize=auto;html=1;edgeStyle=orthogonalEdgeStyle;" edge="1" parent="1" source="tLZzEFcxGO2p9wziNyOv-51">
          <mxGeometry relative="1" as="geometry">
            <mxPoint x="1520" y="1260" as="targetPoint" />
          </mxGeometry>
        </mxCell>
        <mxCell id="tLZzEFcxGO2p9wziNyOv-51" value="&lt;h2&gt;&lt;font color=&quot;#ffffff&quot;&gt;User&lt;/font&gt;&lt;/h2&gt;" style="shape=umlActor;verticalLabelPosition=bottom;verticalAlign=top;html=1;" vertex="1" parent="1">
          <mxGeometry x="1380" y="570" width="30" height="60" as="geometry" />
        </mxCell>
        <mxCell id="tLZzEFcxGO2p9wziNyOv-62" style="edgeStyle=orthogonalEdgeStyle;rounded=0;orthogonalLoop=1;jettySize=auto;html=1;" edge="1" parent="1" source="tLZzEFcxGO2p9wziNyOv-61" target="tLZzEFcxGO2p9wziNyOv-51">
          <mxGeometry relative="1" as="geometry" />
        </mxCell>
        <mxCell id="tLZzEFcxGO2p9wziNyOv-78" style="edgeStyle=orthogonalEdgeStyle;rounded=0;orthogonalLoop=1;jettySize=auto;html=1;" edge="1" parent="1" source="tLZzEFcxGO2p9wziNyOv-61" target="tLZzEFcxGO2p9wziNyOv-77">
          <mxGeometry relative="1" as="geometry">
            <Array as="points">
              <mxPoint x="1210" y="890" />
              <mxPoint x="1210" y="890" />
            </Array>
          </mxGeometry>
        </mxCell>
        <mxCell id="tLZzEFcxGO2p9wziNyOv-61" value="&lt;h3&gt;Owner&lt;/h3&gt;" style="shape=umlActor;verticalLabelPosition=bottom;verticalAlign=top;html=1;" vertex="1" parent="1">
          <mxGeometry x="1310" y="860" width="30" height="60" as="geometry" />
        </mxCell>
        <mxCell id="tLZzEFcxGO2p9wziNyOv-69" value="Get piza by id" style="shape=mxgraph.bpmn.conversation;perimeter=hexagonPerimeter2;whiteSpace=wrap;html=1;aspect=fixed;bpmnConversationType=conv;" vertex="1" parent="1">
          <mxGeometry x="-215" y="800" width="105" height="90" as="geometry" />
        </mxCell>
        <mxCell id="tLZzEFcxGO2p9wziNyOv-74" value="&lt;h2&gt;Корзина&lt;/h2&gt;" style="points=[[0.25,0,0],[0.5,0,0],[0.75,0,0],[1,0.25,0],[1,0.5,0],[1,0.75,0],[0.75,1,0],[0.5,1,0],[0.25,1,0],[0,0.75,0],[0,0.5,0],[0,0.25,0]];rounded=1;dashed=1;dashPattern=5 2 1 2;labelPosition=center;verticalLabelPosition=middle;align=center;verticalAlign=middle;fontSize=8;html=1;whiteSpace=wrap;" vertex="1" parent="1">
          <mxGeometry x="640" y="160" width="70" height="30" as="geometry" />
        </mxCell>
        <mxCell id="tLZzEFcxGO2p9wziNyOv-75" style="edgeStyle=orthogonalEdgeStyle;rounded=0;orthogonalLoop=1;jettySize=auto;html=1;entryX=1;entryY=0.571;entryDx=0;entryDy=0;entryPerimeter=0;" edge="1" parent="1" source="tLZzEFcxGO2p9wziNyOv-74" target="tLZzEFcxGO2p9wziNyOv-32">
          <mxGeometry relative="1" as="geometry" />
        </mxCell>
        <mxCell id="tLZzEFcxGO2p9wziNyOv-76" value="Сохранить всё в Redux&amp;nbsp; для дальнейшего использования в Странице создания заказа" style="text;html=1;strokeColor=none;fillColor=none;align=center;verticalAlign=middle;whiteSpace=wrap;rounded=0;" vertex="1" parent="1">
          <mxGeometry x="340" y="980" width="270" height="50" as="geometry" />
        </mxCell>
        <mxCell id="tLZzEFcxGO2p9wziNyOv-77" value="&lt;h5&gt;Pizza detail page&lt;/h5&gt;" style="shape=umlFrame;whiteSpace=wrap;html=1;pointerEvents=0;" vertex="1" parent="1">
          <mxGeometry x="740" y="680" width="440" height="380" as="geometry" />
        </mxCell>
        <mxCell id="tLZzEFcxGO2p9wziNyOv-82" style="edgeStyle=orthogonalEdgeStyle;rounded=0;orthogonalLoop=1;jettySize=auto;html=1;entryX=1.001;entryY=0.371;entryDx=0;entryDy=0;entryPerimeter=0;" edge="1" parent="1" source="tLZzEFcxGO2p9wziNyOv-51" target="tLZzEFcxGO2p9wziNyOv-1">
          <mxGeometry relative="1" as="geometry" />
        </mxCell>
        <mxCell id="tLZzEFcxGO2p9wziNyOv-89" style="edgeStyle=orthogonalEdgeStyle;rounded=0;orthogonalLoop=1;jettySize=auto;html=1;entryX=1.004;entryY=0.477;entryDx=0;entryDy=0;entryPerimeter=0;" edge="1" parent="1" target="tLZzEFcxGO2p9wziNyOv-32">
          <mxGeometry relative="1" as="geometry">
            <mxPoint x="620" y="1320" as="targetPoint" />
            <mxPoint x="1520" y="1260" as="sourcePoint" />
            <Array as="points">
              <mxPoint x="1520" y="1261" />
              <mxPoint x="770" y="1261" />
              <mxPoint x="770" y="1320" />
              <mxPoint x="700" y="1320" />
              <mxPoint x="700" y="1330" />
            </Array>
          </mxGeometry>
        </mxCell>
        <mxCell id="tLZzEFcxGO2p9wziNyOv-90" value="&lt;h3&gt;Потом будем переходить из проекта pizzas на коммерчиский проект компании x для&amp;nbsp;&lt;br&gt;аренды жилья,&lt;br&gt;так что не упарывайся в вёрстку&lt;/h3&gt;" style="points=[[0.25,0,0],[0.5,0,0],[0.75,0,0],[1,0.25,0],[1,0.5,0],[1,0.75,0],[0.75,1,0],[0.5,1,0],[0.25,1,0],[0,0.75,0],[0,0.5,0],[0,0.25,0]];rounded=1;arcSize=10;dashed=1;fillColor=none;gradientColor=none;dashPattern=8 3 1 3;strokeWidth=2;whiteSpace=wrap;html=1;" vertex="1" parent="1">
          <mxGeometry x="1030" y="40" width="400" height="140" as="geometry" />
        </mxCell>
        <mxCell id="tLZzEFcxGO2p9wziNyOv-92" value="&lt;h2&gt;Data, Photo, etc (Занять всё место как удобно)&lt;/h2&gt;" style="points=[[0.25,0,0],[0.5,0,0],[0.75,0,0],[1,0.25,0],[1,0.5,0],[1,0.75,0],[0.75,1,0],[0.5,1,0],[0.25,1,0],[0,0.75,0],[0,0.5,0],[0,0.25,0]];rounded=1;dashed=1;dashPattern=5 2 1 2;labelPosition=center;verticalLabelPosition=middle;align=center;verticalAlign=middle;fontSize=8;html=1;whiteSpace=wrap;" vertex="1" parent="1">
          <mxGeometry x="760" y="850" width="360" height="140" as="geometry" />
        </mxCell>
        <mxCell id="tLZzEFcxGO2p9wziNyOv-100" style="edgeStyle=orthogonalEdgeStyle;rounded=0;orthogonalLoop=1;jettySize=auto;html=1;entryX=0;entryY=0.5;entryDx=0;entryDy=0;" edge="1" parent="1" source="tLZzEFcxGO2p9wziNyOv-93" target="tLZzEFcxGO2p9wziNyOv-99">
          <mxGeometry relative="1" as="geometry" />
        </mxCell>
        <mxCell id="tLZzEFcxGO2p9wziNyOv-93" value="&lt;h2&gt;Создать Update Pop Up Window (Data, Photo, etc) + кнопка для обновления&lt;/h2&gt;" style="points=[[0.25,0,0],[0.5,0,0],[0.75,0,0],[1,0.25,0],[1,0.5,0],[1,0.75,0],[0.75,1,0],[0.5,1,0],[0.25,1,0],[0,0.75,0],[0,0.5,0],[0,0.25,0]];rounded=1;dashed=1;dashPattern=5 2 1 2;labelPosition=center;verticalLabelPosition=middle;align=center;verticalAlign=middle;fontSize=8;html=1;whiteSpace=wrap;" vertex="1" parent="1">
          <mxGeometry x="820" y="767.5" width="260" height="65" as="geometry" />
        </mxCell>
        <mxCell id="tLZzEFcxGO2p9wziNyOv-94" style="edgeStyle=orthogonalEdgeStyle;rounded=0;orthogonalLoop=1;jettySize=auto;html=1;entryX=0.375;entryY=0.013;entryDx=0;entryDy=0;entryPerimeter=0;" edge="1" parent="1" source="tLZzEFcxGO2p9wziNyOv-96" target="tLZzEFcxGO2p9wziNyOv-93">
          <mxGeometry relative="1" as="geometry" />
        </mxCell>
        <mxCell id="tLZzEFcxGO2p9wziNyOv-95" value="&lt;h3&gt;Кнопка Скрыть (для всех кроме владельца)&lt;/h3&gt;" style="points=[[0.25,0,0],[0.5,0,0],[0.75,0,0],[1,0.25,0],[1,0.5,0],[1,0.75,0],[0.75,1,0],[0.5,1,0],[0.25,1,0],[0,0.75,0],[0,0.5,0],[0,0.25,0]];rounded=1;dashed=1;dashPattern=5 2 1 2;labelPosition=center;verticalLabelPosition=middle;align=center;verticalAlign=middle;fontSize=8;html=1;whiteSpace=wrap;" vertex="1" parent="1">
          <mxGeometry x="1030" y="690" width="140" height="40" as="geometry" />
        </mxCell>
        <mxCell id="tLZzEFcxGO2p9wziNyOv-96" value="&lt;h3&gt;Кнопка обновить (показывать только для владельца)&lt;/h3&gt;" style="points=[[0.25,0,0],[0.5,0,0],[0.75,0,0],[1,0.25,0],[1,0.5,0],[1,0.75,0],[0.75,1,0],[0.5,1,0],[0.25,1,0],[0,0.75,0],[0,0.5,0],[0,0.25,0]];rounded=1;dashed=1;dashPattern=5 2 1 2;labelPosition=center;verticalLabelPosition=middle;align=center;verticalAlign=middle;fontSize=8;html=1;whiteSpace=wrap;" vertex="1" parent="1">
          <mxGeometry x="860" y="690" width="160" height="40" as="geometry" />
        </mxCell>
        <mxCell id="tLZzEFcxGO2p9wziNyOv-97" value="Backend" style="shape=umlFrame;whiteSpace=wrap;html=1;pointerEvents=0;" vertex="1" parent="1">
          <mxGeometry x="1600" y="160" width="550" height="1450" as="geometry" />
        </mxCell>
        <mxCell id="tLZzEFcxGO2p9wziNyOv-99" value="&lt;h2&gt;&lt;span style=&quot;background-color: initial; font-size: 12px;&quot;&gt;Update Pizza&lt;/span&gt;&lt;/h2&gt;" style="shape=mxgraph.bpmn.conversation;perimeter=hexagonPerimeter2;whiteSpace=wrap;html=1;aspect=fixed;bpmnConversationType=conv;" vertex="1" parent="1">
          <mxGeometry x="1630" y="690" width="105" height="90" as="geometry" />
        </mxCell>
        <mxCell id="tLZzEFcxGO2p9wziNyOv-107" value="Get categories" style="shape=mxgraph.bpmn.conversation;perimeter=hexagonPerimeter2;whiteSpace=wrap;html=1;aspect=fixed;bpmnConversationType=conv;" vertex="1" parent="1">
          <mxGeometry x="-225.84" y="160" width="105.01" height="90" as="geometry" />
        </mxCell>
        <mxCell id="tLZzEFcxGO2p9wziNyOv-110" style="edgeStyle=orthogonalEdgeStyle;rounded=0;orthogonalLoop=1;jettySize=auto;html=1;" edge="1" parent="1" source="tLZzEFcxGO2p9wziNyOv-109" target="tLZzEFcxGO2p9wziNyOv-107">
          <mxGeometry relative="1" as="geometry" />
        </mxCell>
        <mxCell id="tLZzEFcxGO2p9wziNyOv-109" value="&lt;h2&gt;Categories (Each category query)&lt;/h2&gt;" style="points=[[0.25,0,0],[0.5,0,0],[0.75,0,0],[1,0.25,0],[1,0.5,0],[1,0.75,0],[0.75,1,0],[0.5,1,0],[0.25,1,0],[0,0.75,0],[0,0.5,0],[0,0.25,0]];rounded=1;dashed=1;dashPattern=5 2 1 2;labelPosition=center;verticalLabelPosition=middle;align=center;verticalAlign=middle;fontSize=8;html=1;whiteSpace=wrap;" vertex="1" parent="1">
          <mxGeometry x="250" y="160" width="300" height="40" as="geometry" />
        </mxCell>
        <mxCell id="tLZzEFcxGO2p9wziNyOv-112" value="&lt;h3&gt;Generic Data like total_price&lt;/h3&gt;" style="html=1;whiteSpace=wrap;" vertex="1" parent="1">
          <mxGeometry x="220" y="1430" width="330" height="50" as="geometry" />
        </mxCell>
        <mxCell id="tLZzEFcxGO2p9wziNyOv-115" style="edgeStyle=orthogonalEdgeStyle;rounded=0;orthogonalLoop=1;jettySize=auto;html=1;" edge="1" parent="1" source="tLZzEFcxGO2p9wziNyOv-113">
          <mxGeometry relative="1" as="geometry">
            <mxPoint x="600" y="-80" as="targetPoint" />
          </mxGeometry>
        </mxCell>
        <mxCell id="tLZzEFcxGO2p9wziNyOv-116" value="&lt;h3&gt;Auth Business Process&lt;/h3&gt;" style="edgeLabel;html=1;align=center;verticalAlign=middle;resizable=0;points=[];" vertex="1" connectable="0" parent="tLZzEFcxGO2p9wziNyOv-115">
          <mxGeometry x="-0.026" y="4" relative="1" as="geometry">
            <mxPoint x="-4" y="2" as="offset" />
          </mxGeometry>
        </mxCell>
        <mxCell id="tLZzEFcxGO2p9wziNyOv-113" value="&lt;h2&gt;Login / Logout&lt;/h2&gt;" style="points=[[0.25,0,0],[0.5,0,0],[0.75,0,0],[1,0.25,0],[1,0.5,0],[1,0.75,0],[0.75,1,0],[0.5,1,0],[0.25,1,0],[0,0.75,0],[0,0.5,0],[0,0.25,0]];rounded=1;dashed=1;dashPattern=5 2 1 2;labelPosition=center;verticalLabelPosition=middle;align=center;verticalAlign=middle;fontSize=8;html=1;whiteSpace=wrap;" vertex="1" parent="1">
          <mxGeometry x="560" y="160" width="70" height="35" as="geometry" />
        </mxCell>
      </root>
    </mxGraphModel>
  </diagram>
</mxfile>
